<mxfile host="app.diagrams.net" agent="Mozilla/5.0 (Windows NT 10.0; Win64; x64) AppleWebKit/537.36 (KHTML, like Gecko) Chrome/134.0.0.0 Safari/537.36 Edg/134.0.0.0" version="26.0.16">
  <diagram name="DFA Graph Coloring" id="fnJhv9aqT7oZU3eNKk9d">
    <mxGraphModel dx="298726" dy="193134" grid="1" gridSize="10" guides="1" tooltips="1" connect="1" arrows="1" fold="1" page="1" pageScale="1" pageWidth="850" pageHeight="1100" math="0" shadow="0">
      <root>
        <mxCell id="0" />
        <mxCell id="1" parent="0" />
        <mxCell id="ePDAUJKPAvuJCiLX9oar-74" value="e" edge="1" parent="1">
          <mxGeometry relative="1" as="geometry" />
        </mxCell>
        <mxCell id="ePDAUJKPAvuJCiLX9oar-77" value="r" edge="1" parent="1">
          <mxGeometry relative="1" as="geometry" />
        </mxCell>
        <mxCell id="ePDAUJKPAvuJCiLX9oar-78" value="e" edge="1" parent="1">
          <mxGeometry relative="1" as="geometry" />
        </mxCell>
        <mxCell id="ePDAUJKPAvuJCiLX9oar-79" value="e" edge="1" parent="1">
          <mxGeometry relative="1" as="geometry" />
        </mxCell>
        <mxCell id="ePDAUJKPAvuJCiLX9oar-99" value="e" edge="1" parent="1">
          <mxGeometry relative="1" as="geometry" />
        </mxCell>
        <mxCell id="ePDAUJKPAvuJCiLX9oar-102" value="r" edge="1" parent="1">
          <mxGeometry relative="1" as="geometry" />
        </mxCell>
        <mxCell id="ePDAUJKPAvuJCiLX9oar-103" value="e" edge="1" parent="1">
          <mxGeometry relative="1" as="geometry" />
        </mxCell>
        <mxCell id="ePDAUJKPAvuJCiLX9oar-104" value="e" edge="1" parent="1">
          <mxGeometry relative="1" as="geometry" />
        </mxCell>
        <mxCell id="ePDAUJKPAvuJCiLX9oar-168" value="&lt;font style=&quot;font-size: 18px;&quot;&gt;(&lt;/font&gt;" style="edgeStyle=orthogonalEdgeStyle;rounded=0;orthogonalLoop=1;jettySize=auto;html=1;noEdgeStyle=1;orthogonal=1;" edge="1" parent="1" source="ePDAUJKPAvuJCiLX9oar-107" target="ePDAUJKPAvuJCiLX9oar-108">
          <mxGeometry relative="1" as="geometry" />
        </mxCell>
        <mxCell id="ePDAUJKPAvuJCiLX9oar-169" value="&lt;font style=&quot;font-size: 18px;&quot;&gt;,&lt;/font&gt;" style="edgeStyle=orthogonalEdgeStyle;rounded=0;orthogonalLoop=1;jettySize=auto;html=1;noEdgeStyle=1;orthogonal=1;" edge="1" parent="1" source="ePDAUJKPAvuJCiLX9oar-107" target="ePDAUJKPAvuJCiLX9oar-165">
          <mxGeometry relative="1" as="geometry" />
        </mxCell>
        <mxCell id="ePDAUJKPAvuJCiLX9oar-171" value="&lt;font style=&quot;font-size: 18px;&quot;&gt;)&lt;/font&gt;" style="edgeStyle=orthogonalEdgeStyle;rounded=0;orthogonalLoop=1;jettySize=auto;html=1;noEdgeStyle=1;orthogonal=1;" edge="1" parent="1" source="ePDAUJKPAvuJCiLX9oar-107" target="ePDAUJKPAvuJCiLX9oar-162">
          <mxGeometry relative="1" as="geometry" />
        </mxCell>
        <mxCell id="ePDAUJKPAvuJCiLX9oar-174" value="&lt;font style=&quot;font-size: 18px;&quot;&gt;r&lt;/font&gt;" style="edgeStyle=orthogonalEdgeStyle;rounded=0;orthogonalLoop=1;jettySize=auto;html=1;noEdgeStyle=1;orthogonal=1;" edge="1" parent="1" source="ePDAUJKPAvuJCiLX9oar-107" target="ePDAUJKPAvuJCiLX9oar-173">
          <mxGeometry relative="1" as="geometry" />
        </mxCell>
        <mxCell id="ePDAUJKPAvuJCiLX9oar-181" value="&lt;font style=&quot;font-size: 18px;&quot;&gt;0..9&lt;/font&gt;" style="edgeStyle=orthogonalEdgeStyle;rounded=0;orthogonalLoop=1;jettySize=auto;html=1;noEdgeStyle=1;orthogonal=1;" edge="1" parent="1" source="ePDAUJKPAvuJCiLX9oar-107" target="ePDAUJKPAvuJCiLX9oar-180">
          <mxGeometry relative="1" as="geometry" />
        </mxCell>
        <mxCell id="ePDAUJKPAvuJCiLX9oar-187" value="&lt;font style=&quot;font-size: 18px;&quot;&gt;g&lt;/font&gt;" style="edgeStyle=orthogonalEdgeStyle;rounded=0;orthogonalLoop=1;jettySize=auto;html=1;noEdgeStyle=1;orthogonal=1;" edge="1" parent="1" source="ePDAUJKPAvuJCiLX9oar-107" target="ePDAUJKPAvuJCiLX9oar-183">
          <mxGeometry relative="1" as="geometry" />
        </mxCell>
        <mxCell id="ePDAUJKPAvuJCiLX9oar-107" value="q0" style="ellipse;whiteSpace=wrap;html=1;" vertex="1" parent="1">
          <mxGeometry y="225" width="60" height="60" as="geometry" />
        </mxCell>
        <mxCell id="ePDAUJKPAvuJCiLX9oar-108" value="q1" style="ellipse;shape=doubleEllipse;whiteSpace=wrap;html=1;" vertex="1" parent="1">
          <mxGeometry y="30" width="60" height="60" as="geometry" />
        </mxCell>
        <mxCell id="ePDAUJKPAvuJCiLX9oar-132" style="edgeStyle=orthogonalEdgeStyle;curved=1;endArrow=block;endFill=1;" edge="1" parent="1" target="ePDAUJKPAvuJCiLX9oar-107">
          <mxGeometry relative="1" as="geometry" />
        </mxCell>
        <mxCell id="ePDAUJKPAvuJCiLX9oar-133" value="(" style="endArrow=block;html=1;noEdgeStyle=1;orthogonal=1;" edge="1" parent="1" source="ePDAUJKPAvuJCiLX9oar-107" target="ePDAUJKPAvuJCiLX9oar-108" />
        <mxCell id="ePDAUJKPAvuJCiLX9oar-134" value=")" style="endArrow=block;html=1;noEdgeStyle=1;" edge="1" parent="1" source="ePDAUJKPAvuJCiLX9oar-107" target="ePDAUJKPAvuJCiLX9oar-109" />
        <mxCell id="ePDAUJKPAvuJCiLX9oar-135" value="," style="endArrow=block;html=1;noEdgeStyle=1;" edge="1" parent="1" source="ePDAUJKPAvuJCiLX9oar-107" target="ePDAUJKPAvuJCiLX9oar-110" />
        <mxCell id="ePDAUJKPAvuJCiLX9oar-136" value="0-9" style="endArrow=block;html=1;noEdgeStyle=1;" edge="1" parent="1" source="ePDAUJKPAvuJCiLX9oar-107" target="ePDAUJKPAvuJCiLX9oar-111" />
        <mxCell id="ePDAUJKPAvuJCiLX9oar-137" value="0-9" style="endArrow=block;html=1;curved=1;noEdgeStyle=1;" edge="1" parent="1" source="ePDAUJKPAvuJCiLX9oar-111" target="ePDAUJKPAvuJCiLX9oar-111" />
        <mxCell id="ePDAUJKPAvuJCiLX9oar-138" value="r" style="endArrow=block;html=1;noEdgeStyle=1;" edge="1" parent="1" source="ePDAUJKPAvuJCiLX9oar-107" target="ePDAUJKPAvuJCiLX9oar-117" />
        <mxCell id="ePDAUJKPAvuJCiLX9oar-139" value="e" style="endArrow=block;html=1;noEdgeStyle=1;" edge="1" parent="1" source="ePDAUJKPAvuJCiLX9oar-117" target="ePDAUJKPAvuJCiLX9oar-118" />
        <mxCell id="ePDAUJKPAvuJCiLX9oar-140" value="d" style="endArrow=block;html=1;noEdgeStyle=1;" edge="1" parent="1" source="ePDAUJKPAvuJCiLX9oar-118" target="ePDAUJKPAvuJCiLX9oar-112" />
        <mxCell id="ePDAUJKPAvuJCiLX9oar-141" value="g" style="endArrow=block;html=1;noEdgeStyle=1;" edge="1" parent="1" source="ePDAUJKPAvuJCiLX9oar-107" target="ePDAUJKPAvuJCiLX9oar-119" />
        <mxCell id="ePDAUJKPAvuJCiLX9oar-142" value="r" style="endArrow=block;html=1;noEdgeStyle=1;" edge="1" parent="1" source="ePDAUJKPAvuJCiLX9oar-119" target="ePDAUJKPAvuJCiLX9oar-120" />
        <mxCell id="ePDAUJKPAvuJCiLX9oar-143" value="e" style="endArrow=block;html=1;noEdgeStyle=1;" edge="1" parent="1" source="ePDAUJKPAvuJCiLX9oar-120" target="ePDAUJKPAvuJCiLX9oar-121" />
        <mxCell id="ePDAUJKPAvuJCiLX9oar-144" value="e" style="endArrow=block;html=1;noEdgeStyle=1;" edge="1" parent="1" source="ePDAUJKPAvuJCiLX9oar-121" target="ePDAUJKPAvuJCiLX9oar-122" />
        <mxCell id="ePDAUJKPAvuJCiLX9oar-145" value="n" style="endArrow=block;html=1;noEdgeStyle=1;" edge="1" parent="1" source="ePDAUJKPAvuJCiLX9oar-122" target="ePDAUJKPAvuJCiLX9oar-113" />
        <mxCell id="ePDAUJKPAvuJCiLX9oar-146" value="b" style="endArrow=block;html=1;noEdgeStyle=1;" edge="1" parent="1" source="ePDAUJKPAvuJCiLX9oar-107" target="ePDAUJKPAvuJCiLX9oar-122" />
        <mxCell id="ePDAUJKPAvuJCiLX9oar-147" value="l" style="endArrow=block;html=1;noEdgeStyle=1;" edge="1" parent="1" source="ePDAUJKPAvuJCiLX9oar-122" target="ePDAUJKPAvuJCiLX9oar-113" />
        <mxCell id="ePDAUJKPAvuJCiLX9oar-148" value="u" style="endArrow=block;html=1;noEdgeStyle=1;" edge="1" parent="1" source="ePDAUJKPAvuJCiLX9oar-113" target="ePDAUJKPAvuJCiLX9oar-123" />
        <mxCell id="ePDAUJKPAvuJCiLX9oar-149" value="e" style="endArrow=block;html=1;noEdgeStyle=1;" edge="1" parent="1" source="ePDAUJKPAvuJCiLX9oar-123" target="ePDAUJKPAvuJCiLX9oar-114" />
        <mxCell id="ePDAUJKPAvuJCiLX9oar-150" value="w" style="endArrow=block;html=1;noEdgeStyle=1;" edge="1" parent="1" source="ePDAUJKPAvuJCiLX9oar-107" target="ePDAUJKPAvuJCiLX9oar-114" />
        <mxCell id="ePDAUJKPAvuJCiLX9oar-151" value="h" style="endArrow=block;html=1;noEdgeStyle=1;" edge="1" parent="1" source="ePDAUJKPAvuJCiLX9oar-114" target="ePDAUJKPAvuJCiLX9oar-124" />
        <mxCell id="ePDAUJKPAvuJCiLX9oar-152" value="i" style="endArrow=block;html=1;noEdgeStyle=1;" edge="1" parent="1" source="ePDAUJKPAvuJCiLX9oar-124" target="ePDAUJKPAvuJCiLX9oar-125" />
        <mxCell id="ePDAUJKPAvuJCiLX9oar-153" value="t" style="endArrow=block;html=1;noEdgeStyle=1;" edge="1" parent="1" source="ePDAUJKPAvuJCiLX9oar-125" target="ePDAUJKPAvuJCiLX9oar-126" />
        <mxCell id="ePDAUJKPAvuJCiLX9oar-154" value="e" style="endArrow=block;html=1;noEdgeStyle=1;" edge="1" parent="1" source="ePDAUJKPAvuJCiLX9oar-126" target="ePDAUJKPAvuJCiLX9oar-115" />
        <mxCell id="ePDAUJKPAvuJCiLX9oar-155" value="y" style="endArrow=block;html=1;noEdgeStyle=1;" edge="1" parent="1" source="ePDAUJKPAvuJCiLX9oar-107" target="ePDAUJKPAvuJCiLX9oar-127" />
        <mxCell id="ePDAUJKPAvuJCiLX9oar-156" value="e" style="endArrow=block;html=1;noEdgeStyle=1;" edge="1" parent="1" source="ePDAUJKPAvuJCiLX9oar-127" target="ePDAUJKPAvuJCiLX9oar-128" />
        <mxCell id="ePDAUJKPAvuJCiLX9oar-157" value="l" style="endArrow=block;html=1;noEdgeStyle=1;" edge="1" parent="1" source="ePDAUJKPAvuJCiLX9oar-128" target="ePDAUJKPAvuJCiLX9oar-129" />
        <mxCell id="ePDAUJKPAvuJCiLX9oar-158" value="l" style="endArrow=block;html=1;noEdgeStyle=1;" edge="1" parent="1" source="ePDAUJKPAvuJCiLX9oar-129" target="ePDAUJKPAvuJCiLX9oar-130" />
        <mxCell id="ePDAUJKPAvuJCiLX9oar-159" value="o" style="endArrow=block;html=1;noEdgeStyle=1;" edge="1" parent="1" source="ePDAUJKPAvuJCiLX9oar-130" target="ePDAUJKPAvuJCiLX9oar-131" />
        <mxCell id="ePDAUJKPAvuJCiLX9oar-160" value="w" style="endArrow=block;html=1;noEdgeStyle=1;" edge="1" parent="1" source="ePDAUJKPAvuJCiLX9oar-131" target="ePDAUJKPAvuJCiLX9oar-116" />
        <mxCell id="ePDAUJKPAvuJCiLX9oar-162" value="q2" style="ellipse;shape=doubleEllipse;whiteSpace=wrap;html=1;" vertex="1" parent="1">
          <mxGeometry x="170" y="225" width="60" height="60" as="geometry" />
        </mxCell>
        <mxCell id="ePDAUJKPAvuJCiLX9oar-165" value="q3" style="ellipse;shape=doubleEllipse;whiteSpace=wrap;html=1;" vertex="1" parent="1">
          <mxGeometry x="90" y="40" width="60" height="60" as="geometry" />
        </mxCell>
        <mxCell id="ePDAUJKPAvuJCiLX9oar-176" value="&lt;font style=&quot;font-size: 18px;&quot;&gt;e&lt;/font&gt;" style="edgeStyle=orthogonalEdgeStyle;rounded=0;orthogonalLoop=1;jettySize=auto;html=1;noEdgeStyle=1;orthogonal=1;" edge="1" parent="1" source="ePDAUJKPAvuJCiLX9oar-173" target="ePDAUJKPAvuJCiLX9oar-175">
          <mxGeometry relative="1" as="geometry" />
        </mxCell>
        <mxCell id="ePDAUJKPAvuJCiLX9oar-173" value="q5" style="ellipse;whiteSpace=wrap;html=1;" vertex="1" parent="1">
          <mxGeometry x="180" y="370" width="60" height="60" as="geometry" />
        </mxCell>
        <mxCell id="ePDAUJKPAvuJCiLX9oar-178" value="&lt;font style=&quot;font-size: 18px;&quot;&gt;d&lt;/font&gt;" style="edgeStyle=orthogonalEdgeStyle;rounded=0;orthogonalLoop=1;jettySize=auto;html=1;noEdgeStyle=1;orthogonal=1;" edge="1" parent="1" source="ePDAUJKPAvuJCiLX9oar-175" target="ePDAUJKPAvuJCiLX9oar-177">
          <mxGeometry relative="1" as="geometry" />
        </mxCell>
        <mxCell id="ePDAUJKPAvuJCiLX9oar-175" value="q6" style="ellipse;whiteSpace=wrap;html=1;" vertex="1" parent="1">
          <mxGeometry x="340" y="371.40625" width="60" height="60" as="geometry" />
        </mxCell>
        <mxCell id="ePDAUJKPAvuJCiLX9oar-177" value="q7" style="ellipse;shape=doubleEllipse;whiteSpace=wrap;html=1;" vertex="1" parent="1">
          <mxGeometry x="500" y="371.40625" width="60" height="60" as="geometry" />
        </mxCell>
        <mxCell id="ePDAUJKPAvuJCiLX9oar-180" value="q4" style="ellipse;shape=doubleEllipse;whiteSpace=wrap;html=1;" vertex="1" parent="1">
          <mxGeometry x="180" y="100" width="60" height="60" as="geometry" />
        </mxCell>
        <mxCell id="ePDAUJKPAvuJCiLX9oar-188" value="r" style="edgeStyle=orthogonalEdgeStyle;rounded=0;orthogonalLoop=1;jettySize=auto;html=1;noEdgeStyle=1;orthogonal=1;" edge="1" parent="1" source="ePDAUJKPAvuJCiLX9oar-183" target="ePDAUJKPAvuJCiLX9oar-184">
          <mxGeometry relative="1" as="geometry" />
        </mxCell>
        <mxCell id="ePDAUJKPAvuJCiLX9oar-183" value="q8" style="ellipse;whiteSpace=wrap;html=1;" vertex="1" parent="1">
          <mxGeometry x="160" y="450" width="60" height="60" as="geometry" />
        </mxCell>
        <mxCell id="ePDAUJKPAvuJCiLX9oar-189" value="e" style="edgeStyle=orthogonalEdgeStyle;rounded=0;orthogonalLoop=1;jettySize=auto;html=1;noEdgeStyle=1;orthogonal=1;" edge="1" parent="1" source="ePDAUJKPAvuJCiLX9oar-184" target="ePDAUJKPAvuJCiLX9oar-185">
          <mxGeometry relative="1" as="geometry" />
        </mxCell>
        <mxCell id="ePDAUJKPAvuJCiLX9oar-184" value="q9" style="ellipse;whiteSpace=wrap;html=1;" vertex="1" parent="1">
          <mxGeometry x="320" y="446.1988377571106" width="60" height="60" as="geometry" />
        </mxCell>
        <mxCell id="ePDAUJKPAvuJCiLX9oar-190" value="e" style="edgeStyle=orthogonalEdgeStyle;rounded=0;orthogonalLoop=1;jettySize=auto;html=1;noEdgeStyle=1;orthogonal=1;" edge="1" parent="1" source="ePDAUJKPAvuJCiLX9oar-185" target="ePDAUJKPAvuJCiLX9oar-186">
          <mxGeometry relative="1" as="geometry" />
        </mxCell>
        <mxCell id="ePDAUJKPAvuJCiLX9oar-185" value="q10" style="ellipse;whiteSpace=wrap;html=1;" vertex="1" parent="1">
          <mxGeometry x="480" y="444.2982566356659" width="60" height="60" as="geometry" />
        </mxCell>
        <mxCell id="ePDAUJKPAvuJCiLX9oar-195" value="n" style="edgeStyle=orthogonalEdgeStyle;rounded=0;orthogonalLoop=1;jettySize=auto;html=1;" edge="1" parent="1" source="ePDAUJKPAvuJCiLX9oar-186" target="ePDAUJKPAvuJCiLX9oar-193">
          <mxGeometry relative="1" as="geometry" />
        </mxCell>
        <mxCell id="ePDAUJKPAvuJCiLX9oar-186" value="q11" style="ellipse;whiteSpace=wrap;html=1;" vertex="1" parent="1">
          <mxGeometry x="640" y="444.2982566356659" width="60" height="60" as="geometry" />
        </mxCell>
        <mxCell id="ePDAUJKPAvuJCiLX9oar-192" value="&lt;font style=&quot;font-size: 18px;&quot;&gt;0..9&lt;/font&gt;" style="edgeStyle=orthogonalEdgeStyle;rounded=0;orthogonalLoop=1;jettySize=auto;html=1;entryX=0.5;entryY=1;entryDx=0;entryDy=0;" edge="1" parent="1" source="ePDAUJKPAvuJCiLX9oar-180" target="ePDAUJKPAvuJCiLX9oar-180">
          <mxGeometry relative="1" as="geometry" />
        </mxCell>
        <mxCell id="ePDAUJKPAvuJCiLX9oar-193" value="q12" style="ellipse;shape=doubleEllipse;whiteSpace=wrap;html=1;" vertex="1" parent="1">
          <mxGeometry x="760" y="444.3" width="60" height="60" as="geometry" />
        </mxCell>
        <mxCell id="ePDAUJKPAvuJCiLX9oar-196" value="l" style="edgeStyle=orthogonalEdgeStyle;rounded=0;orthogonalLoop=1;jettySize=auto;html=1;noEdgeStyle=1;orthogonal=1;" edge="1" parent="1" source="ePDAUJKPAvuJCiLX9oar-197" target="ePDAUJKPAvuJCiLX9oar-199">
          <mxGeometry relative="1" as="geometry" />
        </mxCell>
        <mxCell id="ePDAUJKPAvuJCiLX9oar-197" value="q13" style="ellipse;whiteSpace=wrap;html=1;" vertex="1" parent="1">
          <mxGeometry x="110" y="535.7" width="60" height="60" as="geometry" />
        </mxCell>
        <mxCell id="ePDAUJKPAvuJCiLX9oar-198" value="u" style="edgeStyle=orthogonalEdgeStyle;rounded=0;orthogonalLoop=1;jettySize=auto;html=1;noEdgeStyle=1;orthogonal=1;" edge="1" parent="1" source="ePDAUJKPAvuJCiLX9oar-199" target="ePDAUJKPAvuJCiLX9oar-201">
          <mxGeometry relative="1" as="geometry" />
        </mxCell>
        <mxCell id="ePDAUJKPAvuJCiLX9oar-199" value="q14" style="ellipse;whiteSpace=wrap;html=1;" vertex="1" parent="1">
          <mxGeometry x="270" y="531.8988377571106" width="60" height="60" as="geometry" />
        </mxCell>
        <mxCell id="ePDAUJKPAvuJCiLX9oar-200" value="e" style="edgeStyle=orthogonalEdgeStyle;rounded=0;orthogonalLoop=1;jettySize=auto;html=1;noEdgeStyle=1;orthogonal=1;" edge="1" parent="1" source="ePDAUJKPAvuJCiLX9oar-201" target="ePDAUJKPAvuJCiLX9oar-204">
          <mxGeometry relative="1" as="geometry">
            <mxPoint x="590" y="559.9982566356775" as="targetPoint" />
          </mxGeometry>
        </mxCell>
        <mxCell id="ePDAUJKPAvuJCiLX9oar-201" value="q15" style="ellipse;whiteSpace=wrap;html=1;" vertex="1" parent="1">
          <mxGeometry x="430" y="529.9982566356659" width="60" height="60" as="geometry" />
        </mxCell>
        <mxCell id="ePDAUJKPAvuJCiLX9oar-203" value="b" style="rounded=0;orthogonalLoop=1;jettySize=auto;html=1;" edge="1" parent="1" source="ePDAUJKPAvuJCiLX9oar-107" target="ePDAUJKPAvuJCiLX9oar-197">
          <mxGeometry relative="1" as="geometry" />
        </mxCell>
        <mxCell id="ePDAUJKPAvuJCiLX9oar-204" value="q12" style="ellipse;shape=doubleEllipse;whiteSpace=wrap;html=1;" vertex="1" parent="1">
          <mxGeometry x="620" y="530" width="60" height="60" as="geometry" />
        </mxCell>
        <mxCell id="ePDAUJKPAvuJCiLX9oar-205" value="" style="triangle;whiteSpace=wrap;html=1;" vertex="1" parent="1">
          <mxGeometry x="-20" y="232.5" width="20" height="45" as="geometry" />
        </mxCell>
      </root>
    </mxGraphModel>
  </diagram>
</mxfile>
